<svg width="22" height="18" viewBox="0 0 22 18" fill="none" xmlns="http://www.w3.org/2000/svg">
<path d="M7.57143 5.71875C7.09804 5.71875 6.71429 6.08602 6.71429 6.53906C6.71429 6.99211 7.09804 7.35938 7.57143 7.35938C8.04482 7.35938 8.42857 6.99211 8.42857 6.53906C8.42857 6.08602 8.04482 5.71875 7.57143 5.71875Z" fill="#23036A"/>
<path d="M11 5.71875C10.5266 5.71875 10.1429 6.08602 10.1429 6.53906C10.1429 6.99211 10.5266 7.35938 11 7.35938C11.4734 7.35938 11.8571 6.99211 11.8571 6.53906C11.8571 6.08602 11.4734 5.71875 11 5.71875Z" fill="#23036A"/>
<path d="M13.5714 6.53906C13.5714 6.08602 13.9552 5.71875 14.4286 5.71875C14.902 5.71875 15.2857 6.08602 15.2857 6.53906C15.2857 6.99211 14.902 7.35938 14.4286 7.35938C13.9552 7.35938 13.5714 6.99211 13.5714 6.53906Z" fill="#23036A"/>
<path d="M17.8571 5.71875C17.3838 5.71875 17 6.08602 17 6.53906C17 6.99211 17.3838 7.35938 17.8571 7.35938C18.3305 7.35938 18.7143 6.99211 18.7143 6.53906C18.7143 6.08602 18.3305 5.71875 17.8571 5.71875Z" fill="#23036A"/>
<path d="M3.28571 9.82031C3.28571 9.36727 3.66947 9 4.14286 9C4.61624 9 5 9.36727 5 9.82031C5 10.2734 4.61624 10.6406 4.14286 10.6406C3.66947 10.6406 3.28571 10.2734 3.28571 9.82031Z" fill="#23036A"/>
<path d="M7.57143 9C7.09804 9 6.71429 9.36727 6.71429 9.82031C6.71429 10.2734 7.09804 10.6406 7.57143 10.6406C8.04482 10.6406 8.42857 10.2734 8.42857 9.82031C8.42857 9.36727 8.04482 9 7.57143 9Z" fill="#23036A"/>
<path d="M10.1429 9.82031C10.1429 9.36727 10.5266 9 11 9C11.4734 9 11.8571 9.36727 11.8571 9.82031C11.8571 10.2734 11.4734 10.6406 11 10.6406C10.5266 10.6406 10.1429 10.2734 10.1429 9.82031Z" fill="#23036A"/>
<path d="M14.4286 9C13.9552 9 13.5714 9.36727 13.5714 9.82031C13.5714 10.2734 13.9552 10.6406 14.4286 10.6406C14.902 10.6406 15.2857 10.2734 15.2857 9.82031C15.2857 9.36727 14.902 9 14.4286 9Z" fill="#23036A"/>
<path d="M17 9.82031C17 9.36727 17.3838 9 17.8571 9C18.3305 9 18.7143 9.36727 18.7143 9.82031C18.7143 10.2734 18.3305 10.6406 17.8571 10.6406C17.3838 10.6406 17 10.2734 17 9.82031Z" fill="#23036A"/>
<path d="M4.14286 12.2812C3.66947 12.2812 3.28571 12.6485 3.28571 13.1016C3.28571 13.5546 3.66947 13.9219 4.14286 13.9219C4.61624 13.9219 5 13.5546 5 13.1016C5 12.6485 4.61624 12.2812 4.14286 12.2812Z" fill="#23036A"/>
<path d="M6.71429 13.1016C6.71429 12.6485 7.09804 12.2812 7.57143 12.2812C8.04482 12.2812 8.42857 12.6485 8.42857 13.1016C8.42857 13.5546 8.04482 13.9219 7.57143 13.9219C7.09804 13.9219 6.71429 13.5546 6.71429 13.1016Z" fill="#23036A"/>
<path d="M11 12.2812C10.5266 12.2812 10.1429 12.6485 10.1429 13.1016C10.1429 13.5546 10.5266 13.9219 11 13.9219C11.4734 13.9219 11.8571 13.5546 11.8571 13.1016C11.8571 12.6485 11.4734 12.2812 11 12.2812Z" fill="#23036A"/>
<path d="M13.5714 13.1016C13.5714 12.6485 13.9552 12.2812 14.4286 12.2812C14.902 12.2812 15.2857 12.6485 15.2857 13.1016C15.2857 13.5546 14.902 13.9219 14.4286 13.9219C13.9552 13.9219 13.5714 13.5546 13.5714 13.1016Z" fill="#23036A"/>
<path fill-rule="evenodd" clip-rule="evenodd" d="M14.7143 1.89062H7.28571V0.25H6.14286V1.89062H1V17.75H21V1.89062H15.8571V0.25H14.7143V1.89062ZM6.14286 4.07812V2.98438H2.14286V16.6562H19.8571V2.98438H15.8571V4.07812H14.7143V2.98438H7.28571V4.07812H6.14286Z" fill="#23036A"/>
<path d="M7.57143 5.71875C7.09804 5.71875 6.71429 6.08602 6.71429 6.53906C6.71429 6.99211 7.09804 7.35938 7.57143 7.35938C8.04482 7.35938 8.42857 6.99211 8.42857 6.53906C8.42857 6.08602 8.04482 5.71875 7.57143 5.71875Z" stroke="#23036A" stroke-width="0.4"/>
<path d="M11 5.71875C10.5266 5.71875 10.1429 6.08602 10.1429 6.53906C10.1429 6.99211 10.5266 7.35938 11 7.35938C11.4734 7.35938 11.8571 6.99211 11.8571 6.53906C11.8571 6.08602 11.4734 5.71875 11 5.71875Z" stroke="#23036A" stroke-width="0.4"/>
<path d="M13.5714 6.53906C13.5714 6.08602 13.9552 5.71875 14.4286 5.71875C14.902 5.71875 15.2857 6.08602 15.2857 6.53906C15.2857 6.99211 14.902 7.35938 14.4286 7.35938C13.9552 7.35938 13.5714 6.99211 13.5714 6.53906Z" stroke="#23036A" stroke-width="0.4"/>
<path d="M17.8571 5.71875C17.3838 5.71875 17 6.08602 17 6.53906C17 6.99211 17.3838 7.35938 17.8571 7.35938C18.3305 7.35938 18.7143 6.99211 18.7143 6.53906C18.7143 6.08602 18.3305 5.71875 17.8571 5.71875Z" stroke="#23036A" stroke-width="0.4"/>
<path d="M3.28571 9.82031C3.28571 9.36727 3.66947 9 4.14286 9C4.61624 9 5 9.36727 5 9.82031C5 10.2734 4.61624 10.6406 4.14286 10.6406C3.66947 10.6406 3.28571 10.2734 3.28571 9.82031Z" stroke="#23036A" stroke-width="0.4"/>
<path d="M7.57143 9C7.09804 9 6.71429 9.36727 6.71429 9.82031C6.71429 10.2734 7.09804 10.6406 7.57143 10.6406C8.04482 10.6406 8.42857 10.2734 8.42857 9.82031C8.42857 9.36727 8.04482 9 7.57143 9Z" stroke="#23036A" stroke-width="0.4"/>
<path d="M10.1429 9.82031C10.1429 9.36727 10.5266 9 11 9C11.4734 9 11.8571 9.36727 11.8571 9.82031C11.8571 10.2734 11.4734 10.6406 11 10.6406C10.5266 10.6406 10.1429 10.2734 10.1429 9.82031Z" stroke="#23036A" stroke-width="0.4"/>
<path d="M14.4286 9C13.9552 9 13.5714 9.36727 13.5714 9.82031C13.5714 10.2734 13.9552 10.6406 14.4286 10.6406C14.902 10.6406 15.2857 10.2734 15.2857 9.82031C15.2857 9.36727 14.902 9 14.4286 9Z" stroke="#23036A" stroke-width="0.4"/>
<path d="M17 9.82031C17 9.36727 17.3838 9 17.8571 9C18.3305 9 18.7143 9.36727 18.7143 9.82031C18.7143 10.2734 18.3305 10.6406 17.8571 10.6406C17.3838 10.6406 17 10.2734 17 9.82031Z" stroke="#23036A" stroke-width="0.4"/>
<path d="M4.14286 12.2812C3.66947 12.2812 3.28571 12.6485 3.28571 13.1016C3.28571 13.5546 3.66947 13.9219 4.14286 13.9219C4.61624 13.9219 5 13.5546 5 13.1016C5 12.6485 4.61624 12.2812 4.14286 12.2812Z" stroke="#23036A" stroke-width="0.4"/>
<path d="M6.71429 13.1016C6.71429 12.6485 7.09804 12.2812 7.57143 12.2812C8.04482 12.2812 8.42857 12.6485 8.42857 13.1016C8.42857 13.5546 8.04482 13.9219 7.57143 13.9219C7.09804 13.9219 6.71429 13.5546 6.71429 13.1016Z" stroke="#23036A" stroke-width="0.4"/>
<path d="M11 12.2812C10.5266 12.2812 10.1429 12.6485 10.1429 13.1016C10.1429 13.5546 10.5266 13.9219 11 13.9219C11.4734 13.9219 11.8571 13.5546 11.8571 13.1016C11.8571 12.6485 11.4734 12.2812 11 12.2812Z" stroke="#23036A" stroke-width="0.4"/>
<path d="M13.5714 13.1016C13.5714 12.6485 13.9552 12.2812 14.4286 12.2812C14.902 12.2812 15.2857 12.6485 15.2857 13.1016C15.2857 13.5546 14.902 13.9219 14.4286 13.9219C13.9552 13.9219 13.5714 13.5546 13.5714 13.1016Z" stroke="#23036A" stroke-width="0.4"/>
<path fill-rule="evenodd" clip-rule="evenodd" d="M14.7143 1.89062H7.28571V0.25H6.14286V1.89062H1V17.75H21V1.89062H15.8571V0.25H14.7143V1.89062ZM6.14286 4.07812V2.98438H2.14286V16.6562H19.8571V2.98438H15.8571V4.07812H14.7143V2.98438H7.28571V4.07812H6.14286Z" stroke="#23036A" stroke-width="0.4"/>
</svg>
