<svg width="22" height="18" viewBox="0 0 22 18" fill="none" xmlns="http://www.w3.org/2000/svg">
<path d="M1 0.15H0.9V0.25V17.75V17.85H1H21H21.1V17.75V0.25V0.15H21H1ZM17.1688 4.96633L17.0779 4.90208L17.0237 4.99939L14.1481 10.1678L11.9205 6.21491L11.8368 6.06653L11.748 6.21185L8.83213 10.9824L6.62857 8.62767L6.55022 8.54395L6.47793 8.63295L4.25571 11.3689L4.20138 11.4358L4.25951 11.4994L5.09284 12.4114L5.17365 12.4999L5.24623 12.4046L6.55752 10.6825L8.77084 13.4478L8.86067 13.5601L8.93465 13.4368L11.8129 8.64139L14.0612 12.6965L14.1473 12.8519L14.2354 12.6976L18.1794 5.79095L18.2244 5.71209L18.1503 5.65969L17.1688 4.96633ZM2.02842 1.34349H19.9716V16.6565H2.02842V1.34349Z" fill="#23036A" stroke="#23036A" stroke-width="0.2"/>
</svg>
