<svg width="20" height="20" viewBox="0 0 20 20" fill="none" xmlns="http://www.w3.org/2000/svg">
<path d="M18.75 13.5007V6.49928C18.7497 6.19233 18.6596 5.89087 18.489 5.62512C18.3184 5.35937 18.0731 5.1387 17.7778 4.98522L10.9722 1.4845C10.6766 1.33088 10.3413 1.25 10 1.25C9.65868 1.25 9.32337 1.33088 9.02778 1.4845L2.22222 4.98522C1.92692 5.1387 1.68165 5.35937 1.511 5.62512C1.34036 5.89087 1.25035 6.19233 1.25 6.49928V13.5007C1.25035 13.8077 1.34036 14.1091 1.511 14.3749C1.68165 14.6406 1.92692 14.8613 2.22222 15.0148L9.02778 18.5155C9.32337 18.6691 9.65868 18.75 10 18.75C10.3413 18.75 10.6766 18.6691 10.9722 18.5155L17.7778 15.0148C18.0731 14.8613 18.3184 14.6406 18.489 14.3749C18.6596 14.1091 18.7497 13.8077 18.75 13.5007Z" stroke="#23036A" stroke-width="1.2" stroke-linecap="round"/>
<path d="M1.875 6.25L10 10L18.125 5.625" stroke="#23036A" stroke-width="1.2" stroke-linecap="round"/>
<path d="M10 18.75V9.96429" stroke="#23036A" stroke-width="1.2" stroke-linecap="round"/>
</svg>
