<svg width="22" height="18" viewBox="0 0 22 18" fill="none" xmlns="http://www.w3.org/2000/svg">
<mask id="path-1-outside-1_1_63" maskUnits="userSpaceOnUse" x="-0.000732422" y="-0.75" width="22" height="19" fill="black">
<rect fill="white" x="-0.000732422" y="-0.75" width="22" height="19"/>
<path fill-rule="evenodd" clip-rule="evenodd" d="M5.9219 5.25C5.9219 6.97585 6.79631 8.49748 8.12627 9.39602C4.35104 10.4931 1.49734 13.7558 0.999268 17.75H2.26051C2.86705 13.5096 6.51381 10.25 10.9219 10.25C15.33 10.25 18.9768 13.5096 19.5833 17.75H20.8445C20.3465 13.7558 17.4928 10.4931 13.7175 9.39602C15.0475 8.49748 15.9219 6.97585 15.9219 5.25C15.9219 2.48858 13.6833 0.25 10.9219 0.25C8.16048 0.25 5.9219 2.48858 5.9219 5.25ZM14.6719 5.25C14.6719 7.32107 12.993 9 10.9219 9C8.85083 9 7.1719 7.32107 7.1719 5.25C7.1719 3.17893 8.85083 1.5 10.9219 1.5C12.993 1.5 14.6719 3.17893 14.6719 5.25Z"/>
</mask>
<path fill-rule="evenodd" clip-rule="evenodd" d="M5.9219 5.25C5.9219 6.97585 6.79631 8.49748 8.12627 9.39602C4.35104 10.4931 1.49734 13.7558 0.999268 17.75H2.26051C2.86705 13.5096 6.51381 10.25 10.9219 10.25C15.33 10.25 18.9768 13.5096 19.5833 17.75H20.8445C20.3465 13.7558 17.4928 10.4931 13.7175 9.39602C15.0475 8.49748 15.9219 6.97585 15.9219 5.25C15.9219 2.48858 13.6833 0.25 10.9219 0.25C8.16048 0.25 5.9219 2.48858 5.9219 5.25ZM14.6719 5.25C14.6719 7.32107 12.993 9 10.9219 9C8.85083 9 7.1719 7.32107 7.1719 5.25C7.1719 3.17893 8.85083 1.5 10.9219 1.5C12.993 1.5 14.6719 3.17893 14.6719 5.25Z" fill="#23036A"/>
<path d="M8.12627 9.39602L8.18208 9.58808L8.59164 9.46906L8.23823 9.2303L8.12627 9.39602ZM0.999268 17.75L0.800805 17.7253L0.772779 17.95H0.999268V17.75ZM2.26051 17.75V17.95H2.43394L2.4585 17.7783L2.26051 17.75ZM19.5833 17.75L19.3853 17.7783L19.4099 17.95H19.5833V17.75ZM20.8445 17.75V17.95H21.071L21.043 17.7253L20.8445 17.75ZM13.7175 9.39602L13.6056 9.2303L13.2522 9.46906L13.6617 9.58808L13.7175 9.39602ZM8.23823 9.2303C6.96097 8.36736 6.1219 6.90663 6.1219 5.25H5.7219C5.7219 7.04507 6.63165 8.6276 8.01431 9.56175L8.23823 9.2303ZM1.19773 17.7747C1.68577 13.861 4.48238 10.6632 8.18208 9.58808L8.07046 9.20397C4.2197 10.323 1.30891 13.6506 0.800805 17.7253L1.19773 17.7747ZM2.26051 17.55H0.999268V17.95H2.26051V17.55ZM2.4585 17.7783C3.05114 13.6351 6.61474 10.45 10.9219 10.45V10.05C6.41288 10.05 2.68295 13.3842 2.06253 17.7217L2.4585 17.7783ZM10.9219 10.45C15.2291 10.45 18.7927 13.6351 19.3853 17.7783L19.7813 17.7217C19.1608 13.3842 15.4309 10.05 10.9219 10.05V10.45ZM20.8445 17.55H19.5833V17.95H20.8445V17.55ZM13.6617 9.58808C17.3614 10.6632 20.158 13.861 20.6461 17.7747L21.043 17.7253C20.5349 13.6506 17.6241 10.323 13.7733 9.20397L13.6617 9.58808ZM15.7219 5.25C15.7219 6.90663 14.8828 8.36736 13.6056 9.2303L13.8295 9.56175C15.2122 8.6276 16.1219 7.04507 16.1219 5.25H15.7219ZM10.9219 0.45C13.5729 0.45 15.7219 2.59903 15.7219 5.25H16.1219C16.1219 2.37812 13.7938 0.05 10.9219 0.05V0.45ZM6.1219 5.25C6.1219 2.59903 8.27093 0.45 10.9219 0.45V0.05C8.05002 0.05 5.7219 2.37812 5.7219 5.25H6.1219ZM10.9219 9.2C13.1034 9.2 14.8719 7.43152 14.8719 5.25H14.4719C14.4719 7.21061 12.8825 8.8 10.9219 8.8V9.2ZM6.9719 5.25C6.9719 7.43152 8.74038 9.2 10.9219 9.2V8.8C8.96129 8.8 7.3719 7.21061 7.3719 5.25H6.9719ZM10.9219 1.3C8.74038 1.3 6.9719 3.06848 6.9719 5.25H7.3719C7.3719 3.28939 8.96129 1.7 10.9219 1.7V1.3ZM14.8719 5.25C14.8719 3.06848 13.1034 1.3 10.9219 1.3V1.7C12.8825 1.7 14.4719 3.28939 14.4719 5.25H14.8719Z" fill="#23036A" mask="url(#path-1-outside-1_1_63)"/>
</svg>
