<svg width="20" height="17" viewBox="0 0 20 17" fill="none" xmlns="http://www.w3.org/2000/svg">
<path d="M14.3352 13.3888C13.961 12.5022 13.4178 11.6969 12.736 11.0178C12.0564 10.3366 11.2512 9.79357 10.365 9.41857C10.3571 9.4146 10.3492 9.41261 10.3412 9.40865C11.5773 8.5158 12.3809 7.06145 12.3809 5.42059C12.3809 2.70236 10.1785 0.5 7.4603 0.5C4.74207 0.5 2.53971 2.70236 2.53971 5.42059C2.53971 7.06145 3.34327 8.5158 4.57937 9.41063C4.57143 9.4146 4.5635 9.41658 4.55556 9.42055C3.66668 9.79555 2.86907 10.3332 2.18455 11.0197C1.50343 11.6994 0.960367 12.5046 0.585362 13.3908C0.216957 14.2583 0.0182676 15.1884 4.96146e-05 16.1308C-0.000479954 16.152 0.00323435 16.173 0.0109738 16.1928C0.0187132 16.2125 0.0303211 16.2305 0.0451135 16.2456C0.0599059 16.2608 0.0775834 16.2728 0.0971046 16.2811C0.116626 16.2893 0.137596 16.2935 0.158778 16.2935H1.34924C1.43654 16.2935 1.50599 16.2241 1.50797 16.1387C1.54765 14.607 2.16273 13.1725 3.25002 12.0852C4.37501 10.9602 5.86904 10.3412 7.4603 10.3412C9.05155 10.3412 10.5456 10.9602 11.6706 12.0852C12.7579 13.1725 13.3729 14.607 13.4126 16.1387C13.4146 16.226 13.484 16.2935 13.5714 16.2935H14.7618C14.783 16.2935 14.804 16.2893 14.8235 16.2811C14.843 16.2728 14.8607 16.2608 14.8755 16.2456C14.8903 16.2305 14.9019 16.2125 14.9096 16.1928C14.9174 16.173 14.9211 16.152 14.9205 16.1308C14.9007 15.1824 14.7043 14.2598 14.3352 13.3888ZM7.4603 8.83325C6.54959 8.83325 5.69246 8.4781 5.04762 7.83326C4.40279 7.18843 4.04763 6.33129 4.04763 5.42059C4.04763 4.50988 4.40279 3.65275 5.04762 3.00791C5.69246 2.36308 6.54959 2.00792 7.4603 2.00792C8.371 2.00792 9.22814 2.36308 9.87297 3.00791C10.5178 3.65275 10.873 4.50988 10.873 5.42059C10.873 6.33129 10.5178 7.18843 9.87297 7.83326C9.22814 8.4781 8.371 8.83325 7.4603 8.83325Z" fill="#23036A"/>
<path fill-rule="evenodd" clip-rule="evenodd" d="M14.1349 10.5566C15.1135 10.8272 16.01 11.3474 16.7478 12.0852C17.835 13.1725 18.4501 14.607 18.4898 16.1387C18.4918 16.226 18.5612 16.2935 18.6485 16.2935H19.839C19.8602 16.2935 19.8811 16.2893 19.9007 16.2811C19.9202 16.2728 19.9379 16.2608 19.9527 16.2456C19.9675 16.2305 19.9791 16.2125 19.9868 16.1928C19.9945 16.173 19.9983 16.152 19.9977 16.1308C19.9779 15.1824 19.7815 14.2598 19.4124 13.3888C19.0381 12.5022 18.495 11.6969 17.8132 11.0178C17.1335 10.3366 16.3284 9.79357 15.4422 9.41857C15.4382 9.41658 15.4343 9.4151 15.4303 9.41361C15.4263 9.41212 15.4224 9.41063 15.4184 9.40865C16.6545 8.5158 17.4581 7.06145 17.4581 5.42059C17.4581 2.70236 15.2557 0.5 12.5375 0.5C11.9822 0.5 11.4484 0.591909 10.9506 0.76135C11.7114 1.02031 12.3885 1.46036 12.9303 2.03018C13.6926 2.11716 14.3989 2.4567 14.9502 3.00791C15.595 3.65275 15.9501 4.50988 15.9501 5.42059C15.9501 6.33129 15.595 7.18843 14.9502 7.83326C14.3986 8.38481 13.6917 8.72443 12.9289 8.81115C12.7199 9.03062 12.4908 9.23078 12.2446 9.40865C12.2485 9.41063 12.2525 9.41212 12.2565 9.41361C12.2604 9.41509 12.2644 9.41658 12.2684 9.41857C12.9442 9.70458 13.573 10.0883 14.1349 10.5566Z" fill="#23036A"/>
</svg>
