<svg width="20" height="20" viewBox="0 0 20 20" fill="none" xmlns="http://www.w3.org/2000/svg">
<path d="M10.0011 12.3864C11.3191 12.3864 12.3875 11.318 12.3875 10C12.3875 8.68209 11.3191 7.61368 10.0011 7.61368C8.68316 7.61368 7.61475 8.68209 7.61475 10C7.61475 11.318 8.68316 12.3864 10.0011 12.3864Z" stroke="#23036A" stroke-width="1.4" stroke-linecap="round" stroke-linejoin="round"/>
<path d="M15.8864 12.3864C15.7805 12.6263 15.7489 12.8924 15.7957 13.1505C15.8425 13.4085 15.9655 13.6466 16.1489 13.8341L16.1966 13.8818C16.3445 14.0296 16.4619 14.205 16.5419 14.3982C16.622 14.5913 16.6632 14.7983 16.6632 15.0074C16.6632 15.2165 16.622 15.4235 16.5419 15.6166C16.4619 15.8097 16.3445 15.9852 16.1966 16.133C16.0488 16.2809 15.8734 16.3982 15.6802 16.4783C15.4871 16.5583 15.2801 16.5995 15.071 16.5995C14.862 16.5995 14.6549 16.5583 14.4618 16.4783C14.2687 16.3982 14.0932 16.2809 13.9455 16.133L13.8977 16.0852C13.7103 15.9018 13.4721 15.7788 13.2141 15.732C12.9561 15.6853 12.6899 15.7168 12.45 15.8227C12.2147 15.9236 12.0141 16.091 11.8727 16.3044C11.7314 16.5178 11.6556 16.7679 11.6545 17.0239V17.1591C11.6545 17.581 11.4869 17.9857 11.1886 18.284C10.8902 18.5824 10.4856 18.75 10.0636 18.75C9.6417 18.75 9.23705 18.5824 8.93869 18.284C8.64034 17.9857 8.47273 17.581 8.47273 17.1591V17.0875C8.46657 16.8242 8.38134 16.5689 8.22813 16.3546C8.07492 16.1404 7.86081 15.9773 7.61364 15.8864C7.37371 15.7805 7.10757 15.7489 6.84953 15.7957C6.59149 15.8425 6.35338 15.9655 6.16591 16.1489L6.11818 16.1966C5.97043 16.3445 5.79497 16.4618 5.60184 16.5419C5.4087 16.622 5.20168 16.6632 4.99261 16.6632C4.78354 16.6632 4.57652 16.622 4.38339 16.5419C4.19026 16.4618 4.0148 16.3445 3.86705 16.1966C3.71913 16.0488 3.60178 15.8734 3.52172 15.6802C3.44166 15.4871 3.40045 15.2801 3.40045 15.071C3.40045 14.862 3.44166 14.6549 3.52172 14.4618C3.60178 14.2687 3.71913 14.0932 3.86705 13.9455L3.91477 13.8977C4.09815 13.7103 4.22117 13.4721 4.26796 13.2141C4.31475 12.9561 4.28316 12.6899 4.17727 12.45C4.07644 12.2147 3.90901 12.0141 3.6956 11.8727C3.48218 11.7314 3.2321 11.6556 2.97614 11.6545H2.84091C2.41897 11.6545 2.01432 11.4869 1.71597 11.1886C1.41761 10.8902 1.25 10.4856 1.25 10.0636C1.25 9.6417 1.41761 9.23705 1.71597 8.93869C2.01432 8.64034 2.41897 8.47273 2.84091 8.47273H2.9125C3.17579 8.46657 3.43114 8.38134 3.64535 8.22813C3.85956 8.07492 4.02273 7.86081 4.11364 7.61364C4.21952 7.37371 4.25111 7.10757 4.20432 6.84953C4.15753 6.59149 4.03452 6.35338 3.85114 6.16591L3.80341 6.11818C3.65549 5.97043 3.53815 5.79497 3.45809 5.60184C3.37803 5.4087 3.33682 5.20168 3.33682 4.99261C3.33682 4.78354 3.37803 4.57652 3.45809 4.38339C3.53815 4.19026 3.65549 4.0148 3.80341 3.86705C3.95116 3.71913 4.12662 3.60178 4.31975 3.52172C4.51289 3.44166 4.71991 3.40045 4.92898 3.40045C5.13805 3.40045 5.34507 3.44166 5.5382 3.52172C5.73133 3.60178 5.90679 3.71913 6.05455 3.86705L6.10227 3.91477C6.28974 4.09815 6.52785 4.22117 6.7859 4.26796C7.04394 4.31475 7.31008 4.28316 7.55 4.17727H7.61364C7.84891 4.07644 8.04956 3.90901 8.19089 3.6956C8.33222 3.48218 8.40807 3.2321 8.40909 2.97614V2.84091C8.40909 2.41897 8.5767 2.01432 8.87506 1.71597C9.17341 1.41761 9.57806 1.25 10 1.25C10.4219 1.25 10.8266 1.41761 11.1249 1.71597C11.4233 2.01432 11.5909 2.41897 11.5909 2.84091V2.9125C11.5919 3.16847 11.6678 3.41855 11.8091 3.63196C11.9504 3.84537 12.1511 4.0128 12.3864 4.11364C12.6263 4.21952 12.8924 4.25111 13.1505 4.20432C13.4085 4.15753 13.6466 4.03452 13.8341 3.85114L13.8818 3.80341C14.0296 3.65549 14.205 3.53815 14.3982 3.45809C14.5913 3.37803 14.7983 3.33682 15.0074 3.33682C15.2165 3.33682 15.4235 3.37803 15.6166 3.45809C15.8097 3.53815 15.9852 3.65549 16.133 3.80341C16.2809 3.95116 16.3982 4.12662 16.4783 4.31975C16.5583 4.51289 16.5995 4.71991 16.5995 4.92898C16.5995 5.13805 16.5583 5.34507 16.4783 5.5382C16.3982 5.73133 16.2809 5.90679 16.133 6.05454L16.0852 6.10227C15.9018 6.28974 15.7788 6.52785 15.732 6.78589C15.6853 7.04394 15.7168 7.31008 15.8227 7.55V7.61364C15.9236 7.84891 16.091 8.04956 16.3044 8.19089C16.5178 8.33222 16.7679 8.40807 17.0239 8.40909H17.1591C17.581 8.40909 17.9857 8.5767 18.284 8.87506C18.5824 9.17341 18.75 9.57806 18.75 10C18.75 10.4219 18.5824 10.8266 18.284 11.1249C17.9857 11.4233 17.581 11.5909 17.1591 11.5909H17.0875C16.8315 11.5919 16.5815 11.6678 16.368 11.8091C16.1546 11.9504 15.9872 12.1511 15.8864 12.3864V12.3864Z" stroke="#23036A" stroke-width="1.4" stroke-linecap="round" stroke-linejoin="round"/>
</svg>
