<svg width="22" height="18" viewBox="0 0 22 18" fill="none" xmlns="http://www.w3.org/2000/svg">
<path d="M20.7641 5.29922L20.7641 5.29921L20.7629 5.29744C20.1834 4.42816 18.9573 4.2142 18.0925 4.79073L18.0925 4.79071L18.0906 4.79201C17.3918 5.2812 17.0986 6.17653 17.3447 6.95557L15.2973 8.36316C14.969 7.92892 14.5361 7.55406 14.1024 7.23807L15.1983 5.11079H15.1987H15.1996H15.2005H15.2014H15.2023H15.2032H15.2041H15.205H15.2059H15.2068H15.2077H15.2087H15.2096H15.2105H15.2114H15.2123H15.2132H15.2141H15.2151H15.216H15.2169H15.2178H15.2187H15.2197H15.2206H15.2215H15.2224H15.2234H15.2243H15.2252H15.2261H15.2271H15.228H15.2289H15.2299H15.2308H15.2317H15.2327H15.2336H15.2346H15.2355H15.2364H15.2374H15.2383H15.2393H15.2402H15.2411H15.2421H15.243H15.244H15.2449H15.2459H15.2468H15.2478H15.2487H15.2497H15.2506H15.2516H15.2525H15.2535H15.2544H15.2554H15.2564H15.2573H15.2583H15.2592H15.2602H15.2611H15.2621H15.2631H15.264H15.265H15.266H15.2669H15.2679H15.2688H15.2698H15.2708H15.2718H15.2727H15.2737H15.2747H15.2756H15.2766H15.2776H15.2785H15.2795H15.2805H15.2815H15.2824H15.2834H15.2844H15.2854H15.2863H15.2873H15.2883H15.2893H15.2903H15.2912H15.2922H15.2932H15.2942H15.2952H15.2961H15.2971H15.2981H15.2991H15.3001H15.3011H15.302H15.303H15.304H15.305H15.306H15.307H15.308H15.3089H15.3099H15.3109H15.3119H15.3129H15.3139H15.3149H15.3159H15.3169H15.3179H15.3188H15.3198H15.3208H15.3218H15.3228H15.3238H15.3248H15.3258H15.3268H15.3278H15.3288H15.3298H15.3308H15.3318H15.3328H15.3338H15.3348H15.3358H15.3368H15.3378H15.3387H15.3397H15.3407H15.3417H15.3427H15.3437H15.3447H15.3457H15.3467H15.3477H15.3487H15.3497H15.3507H15.3517H15.3527H15.3537H15.3547H15.3557H15.3567H15.3577H15.3587H15.3597H15.3607H15.3617H15.3628H15.3638H15.3648H15.3658H15.3668H15.3678H15.3688H15.3698H15.3708H15.3718H15.3728H15.3738H15.3748H15.3758H15.3768H15.3778H15.3788H15.3798H15.3808H15.3818H15.3828H15.3838H15.3848H15.3858H15.3868H15.3878H15.3888H15.3898H15.3908H15.3918H15.3928H15.3938H15.3948H15.3958H15.3968H15.3978H15.3988H15.3998H15.4008H15.4018H15.4028H15.4038H15.4048H15.4058H15.4068H15.4078H15.4088H15.4098H15.4108H15.4118H15.4128H15.4138H15.4148H15.4158H15.4168H15.4178H15.4188H15.4198H15.4208H15.4218H15.4228H15.4238H15.4248H15.4258H15.4268H15.4278H15.4288H15.4298H15.4307H15.4317H15.4327H15.4337H15.4347H15.4357H15.4367H15.4377H15.4387H15.4397H15.4407H15.4417H15.4426H15.4436H15.4446H15.4456H15.4466H15.4476H15.4486H15.4496H15.4505H15.4515H15.4525H15.4535H15.4545H15.4555H15.4564H15.4574H15.4584H15.4594H15.4604H15.4614H15.4623H15.4633H15.4643H15.4653H15.4662H15.4672H15.4682H15.4692H15.4702H15.4711H15.4721H15.4731H15.474H15.475H15.476H15.477H15.4779H15.4789H15.4799H15.4808H15.4818H15.4828H15.4837H15.4847H15.4857H15.4866H15.4876H15.4886H15.4895H15.4905H15.4915H15.4924H15.4934H15.4943H15.4953H15.4963H15.4972H15.4982H15.4991H15.5001H15.501H15.502H15.5029H15.5039H15.5048H15.5058H15.5067H15.5077H15.5086H15.5096H15.5105H15.5115H15.5124H15.5134H15.5143H15.5152H15.5162H15.5171H15.5181H15.519H15.5199H15.5209H15.5218H15.5228H15.5237H15.5246H15.5256H15.5265H15.5274H15.5283H15.5293H15.5302H15.5311H15.5321H15.533H15.5339H15.5348H15.5357H15.5367H15.5376H15.5385H15.5394H15.5403H15.5413H15.5422H15.5431H15.544H15.5449H15.5458H15.5467H15.5476H15.5485H15.5494H15.5503H15.5513H15.5522H15.5531H15.554H15.5549H15.5558H15.5567H15.5575H15.5584H15.5593H15.5602H15.5611H15.562H15.5629H15.5638H15.5647H15.5656H15.5664H15.5673H15.5682H15.5691H15.57H15.5708H15.5717H15.5726H15.5735H15.5743H15.5752H15.5761H15.577H15.5778H15.5787H15.5796H15.5804H15.5813H15.5821H15.583H15.5839H15.5847H15.5856H15.5864H15.5873H15.5881H15.589H15.5898H15.5907H15.5915H15.5924H15.5932H15.5941H15.5949H15.5957H15.5966H15.5974H15.5983H15.5991H15.5999H15.6008H15.6016H15.6024H15.6032H15.6041H15.6049H15.6057H15.6065H15.6074H15.6082H15.609H15.6098H15.6106H15.6114H15.6122H15.613H15.6139H15.6147H15.6155H15.6163H15.6195C15.8234 5.11079 15.9737 5.11079 16.1932 5.03792C17.2049 4.74761 17.7796 3.66528 17.4915 2.65687C17.202 1.6439 16.1189 1.06823 15.1098 1.35655C14.0981 1.6456 13.5227 2.72632 13.8084 3.73432C13.8781 4.07757 14.0756 4.35415 14.2666 4.60948L13.1057 6.80234C12.6112 6.61948 12.0549 6.43965 11.5424 6.41825V3.92155C12.5056 3.60781 13.1205 2.62567 12.9086 1.63702C12.6909 0.621158 11.6083 -0.0242897 10.6003 0.191699C9.58466 0.409338 8.93928 1.49161 9.15485 2.49938C9.29613 3.20431 9.84458 3.69651 10.5213 3.92085V6.42715C9.96203 6.49594 9.45662 6.62161 8.95445 6.80392L7.66868 4.61811C8.40521 3.89141 8.45684 2.70706 7.753 1.93283C7.03248 1.14026 5.80609 1.06698 5.01159 1.78925L5.01152 1.78917L5.00815 1.79254C4.28886 2.51183 4.21496 3.73322 4.93329 4.52718C5.15581 4.82175 5.45103 4.96629 5.79439 5.10363L5.81228 5.11079H5.83153H5.83234H5.83314H5.83395H5.83475H5.83556H5.83637H5.83718H5.838H5.83881H5.83963H5.84045H5.84127H5.84209H5.84291H5.84373H5.84456H5.84539H5.84621H5.84704H5.84788H5.84871H5.84954H5.85038H5.85121H5.85205H5.85289H5.85373H5.85458H5.85542H5.85627H5.85711H5.85796H5.85881H5.85966H5.86051H5.86137H5.86222H5.86308H5.86394H5.8648H5.86566H5.86652H5.86738H5.86824H5.86911H5.86998H5.87084H5.87171H5.87258H5.87346H5.87433H5.8752H5.87608H5.87696H5.87783H5.87871H5.87959H5.88048H5.88136H5.88224H5.88313H5.88402H5.8849H5.88579H5.88668H5.88757H5.88847H5.88936H5.89025H5.89115H5.89205H5.89295H5.89385H5.89475H5.89565H5.89655H5.89745H5.89836H5.89926H5.90017H5.90108H5.90199H5.9029H5.90381H5.90472H5.90564H5.90655H5.90747H5.90838H5.9093H5.91022H5.91114H5.91206H5.91298H5.9139H5.91483H5.91575H5.91668H5.9176H5.91853H5.91946H5.92039H5.92132H5.92225H5.92318H5.92411H5.92505H5.92598H5.92692H5.92786H5.92879H5.92973H5.93067H5.93161H5.93255H5.93349H5.93444H5.93538H5.93632H5.93727H5.93822H5.93916H5.94011H5.94106H5.94201H5.94296H5.94391H5.94486H5.94581H5.94677H5.94772H5.94868H5.94963H5.95059H5.95155H5.9525H5.95346H5.95442H5.95538H5.95634H5.9573H5.95827H5.95923H5.96019H5.96116H5.96212H5.96309H5.96405H5.96502H5.96599H5.96696H5.96793H5.9689H5.96987H5.97084H5.97181H5.97278H5.97375H5.97473H5.9757H5.97667H5.97765H5.97862H5.9796H5.98058H5.98155H5.98253H5.98351H5.98449H5.98547H5.98645H5.98743H5.98841H5.98939H5.99037H5.99136H5.99234H5.99332H5.99431H5.99529H5.99628H5.99726H5.99825H5.99923H6.00022H6.00121H6.00219H6.00318H6.00417H6.00516H6.00615H6.00714H6.00813H6.00912H6.01011H6.0111H6.01209H6.01308H6.01408H6.01507H6.01606H6.01706H6.01805H6.01904H6.02004H6.02103H6.02203H6.02302H6.02402H6.02501H6.02601H6.027H6.028H6.029H6.03H6.03099H6.03199H6.03299H6.03399H6.03498H6.03598H6.03698H6.03798H6.03898H6.03998H6.04098H6.04198H6.04298H6.04398H6.04498H6.04598H6.04698H6.04798H6.04898H6.04998H6.05098H6.05198H6.05298H6.05399H6.05499H6.05599H6.05699H6.05799H6.05899H6.06H6.061H6.062H6.063H6.064H6.06501H6.06601H6.06701H6.06801H6.06902H6.07002H6.07102H6.07202H6.07302H6.07403H6.07503H6.07603H6.07703H6.07804H6.07904H6.08004H6.08104H6.08204H6.08305H6.08405H6.08505H6.08605H6.08705H6.08805H6.08906H6.09006H6.09106H6.09206H6.09306H6.09406H6.09506H6.09606H6.09706H6.09806H6.09906H6.10006H6.10106H6.10206H6.10306H6.10406H6.10506H6.10606H6.10706H6.10805H6.10905H6.11005H6.11105H6.11204H6.11304H6.11404H6.11504H6.11603H6.11703H6.11802H6.11902H6.12001H6.12101H6.122H6.123H6.12399H6.12498H6.12598H6.12697H6.12796H6.12896H6.12995H6.13094H6.13193H6.13292H6.13391H6.1349H6.13589H6.13688H6.13787H6.13886H6.13984H6.14083H6.14182H6.14281H6.14379H6.14478H6.14576H6.14675H6.14773H6.14872H6.1497H6.15068H6.15167H6.15265H6.15363H6.15461H6.15559H6.15657H6.15755H6.15853H6.15951H6.16048H6.16146H6.16244H6.16341H6.16439H6.16537H6.16634H6.16731H6.16829H6.16926H6.17023H6.1712H6.17217H6.17314H6.17411H6.17508H6.17605H6.17702H6.17799H6.17895H6.17992H6.18088H6.18185H6.18281H6.18377H6.18474H6.1857H6.18666H6.18762H6.18858H6.18954H6.19049H6.19145H6.19241H6.19336H6.19432H6.19527H6.19623H6.19718H6.19813H6.19908H6.20003H6.20098H6.20193H6.20288H6.20382H6.20477H6.20572H6.20666H6.2076H6.20855H6.20949H6.21043H6.21137H6.21231H6.21325H6.21418H6.21512H6.21606H6.21699H6.21793H6.21886H6.21979H6.22072H6.22165H6.22258H6.22351H6.22444H6.22536H6.22629H6.22721H6.22814H6.22906H6.22998H6.2309H6.23182H6.23274H6.23366H6.23457H6.23549H6.2364H6.23732H6.23823H6.23914H6.24005H6.24096H6.24187H6.24278H6.24368H6.24459H6.24549H6.24639H6.24729H6.24819H6.24909H6.24999H6.25089H6.25179H6.25268H6.25357H6.25447H6.25536H6.25625H6.25714H6.25802H6.25891H6.2598H6.26068H6.26156H6.26245H6.26333H6.26421H6.26508H6.26596H6.26684H6.26771H6.26858H6.26946H6.27033H6.2712H6.27206H6.27293H6.2738H6.27466H6.27552H6.27638H6.27724H6.2781H6.27896H6.27982H6.28067H6.28153H6.28238H6.28323H6.28408H6.28493H6.28577H6.28662H6.28746H6.28831H6.28915H6.28999H6.29082H6.29166H6.2925H6.29333H6.29416H6.295H6.29583H6.29665H6.29748H6.29831H6.29913H6.29995H6.30077H6.30159H6.30241H6.30323H6.30404H6.30486H6.30567H6.30648H6.30729H6.30809H6.3089H6.3097H6.31051H6.31171H6.31291H6.31411H6.3153H6.3165H6.3177H6.31889H6.32008H6.32127H6.32246H6.32364H6.32483H6.32601H6.32719H6.32837H6.32955H6.33073H6.33191H6.33308H6.33425H6.33542H6.33659H6.33776H6.33893H6.34009H6.34126H6.34242H6.34358H6.34474H6.3459H6.34705H6.34821H6.34936H6.35052H6.35167H6.35282H6.35396H6.35511H6.35625H6.3574H6.35854H6.35968H6.36082H6.36196H6.36309H6.36423H6.36536H6.36649H6.36762H6.36875H6.36988H6.37101H6.37213H6.37325H6.37438H6.3755H6.37662H6.37773H6.37885H6.37996H6.38108H6.38219H6.3833H6.38441H6.38552H6.38663H6.38773H6.38883H6.38994H6.39104H6.39214H6.39324H6.39433H6.39543H6.39652H6.39762H6.39871H6.3998H6.40089H6.40198H6.40306H6.40415H6.40523H6.40632H6.4074H6.40848H6.40956H6.41063H6.41171H6.41279H6.41386H6.41493H6.416H6.41707H6.41814H6.41921H6.42027H6.42134H6.4224H6.42346H6.42452H6.42558H6.42664H6.4277H6.42875H6.42981H6.43086H6.43191H6.43297H6.43402H6.43506H6.43611H6.43716H6.4382H6.43925H6.44029H6.44133H6.44237H6.44341H6.44444H6.44548H6.44652H6.44755H6.44858H6.44961H6.45064H6.45167H6.4527H6.45373H6.45475H6.45578H6.4568H6.45782H6.45884H6.45986H6.46088H6.4619H6.46292H6.46393H6.46495H6.46596H6.46697H6.46798H6.46899H6.47H6.47101H6.47201H6.47302H6.47402H6.47502H6.47603H6.47703H6.47803H6.47902H6.48002H6.48102H6.48201H6.48301H6.484H6.48499H6.48598H6.48697H6.48796H6.48895H6.48994H6.49092H6.49191H6.49289H6.49387H6.49485H6.49583H6.49681H6.49779H6.49877H6.49974H6.50072H6.50169H6.50267H6.50364H6.50461H6.50558H6.50655H6.50751H6.50848H6.50945H6.51041H6.51138H6.51234H6.5133H6.51426H6.51522H6.51618H6.51714H6.5181H6.51905H6.52001H6.52096H6.52191H6.52287H6.52382H6.52477H6.52572H6.52667H6.52761H6.52856H6.52951H6.53045H6.53139H6.53234H6.53328H6.53422H6.53516H6.5361H6.53704H6.53797H6.53891H6.53984H6.54078H6.54171H6.54265H6.54358H6.54451H6.54544H6.54637H6.5473H6.54822H6.54915H6.55008H6.551H6.55192H6.55285H6.55377H6.55469H6.55561H6.55653H6.55745H6.55837H6.55928H6.5602H6.56112H6.56203H6.56294H6.56386H6.56477H6.56568H6.56659H6.5675H6.56841H6.56932H6.57023H6.57113H6.57204H6.57294H6.57385H6.57475H6.57565H6.57655H6.57745H6.57835H6.57925H6.58015H6.58105H6.58195H6.58284H6.58374H6.58463H6.58553H6.58642H6.58731H6.58821H6.5891H6.58999H6.59088H6.59177H6.59265H6.59354H6.59443H6.59531H6.5962H6.59708H6.59797H6.59885H6.59973H6.60061H6.6015H6.60238H6.60326H6.60413H6.60501H6.60589H6.60677H6.60764H6.60852H6.60939H6.61027H6.61114H6.61201H6.61289H6.61376H6.61463H6.6155H6.61637H6.61724H6.61811H6.61897H6.61984H6.62071H6.62157H6.62244H6.6233H6.62417H6.62503H6.62589H6.62676H6.62762H6.62848H6.62934H6.6302H6.63106H6.63192H6.63277H6.63363H6.63449H6.63534H6.6362H6.63705H6.63791H6.63876H6.63962H6.64047H6.64132H6.64217H6.64302H6.64387H6.64472H6.64557H6.64642H6.64727H6.64812H6.64897H6.64981H6.65066H6.65151H6.65235H6.6532H6.65404H6.65488H6.65573H6.65657H6.65741H6.65825H6.65909H6.65994H6.66078H6.66162H6.66246H6.66329H6.66413H6.66497H6.66581H6.66664H6.66748H6.66832H6.66915H6.66999H6.67082H6.67166H6.67249H6.67332H6.67416H6.67499H6.67582H6.67665H6.67748H6.67831H6.67914H6.67998H6.6808H6.68163H6.68246H6.68329H6.68412H6.68495H6.68577H6.6866H6.68743H6.68825H6.68908H6.6899H6.69073H6.69155H6.69238H6.6932H6.69402H6.69485H6.69567H6.69649H6.69731H6.69813H6.69896H6.69978H6.7006H6.70142H6.70224H6.70306H6.70388H6.70469H6.70551H6.70633H6.70715H6.70797H6.70878H6.7096H6.71042H6.71123H6.71205H6.71287H6.71368H6.7145H6.71531H6.71613H6.71694H6.71775H6.71857H6.71938H6.7202H6.72101H6.72182H6.72263H6.72345H6.72426H6.72507H6.72588H6.72669H6.7275H6.72831H6.72913H6.72927L7.89201 7.30707C7.45855 7.62295 7.02595 7.99761 6.69788 8.43158L4.65027 7.02385C4.96139 6.03585 4.45645 4.99511 3.4703 4.64291C2.46269 4.28305 1.37906 4.78593 1.01689 5.72756L1.01687 5.72755L1.01605 5.72982C0.655578 6.73916 1.16081 7.82315 2.17139 8.18407L2.17138 8.18409L2.1734 8.18477C2.79591 8.39227 3.54991 8.26867 4.05766 7.87268L6.10982 9.28354C4.6414 11.9215 5.62532 15.2815 8.24472 16.798C10.8944 18.332 14.3075 17.355 15.8396 14.709C16.801 13.0606 16.8147 11.0083 15.8843 9.28425L17.9354 7.87413C18.7306 8.53995 19.9142 8.45107 20.6168 7.6782L20.6176 7.67736C21.1963 7.02631 21.2657 6.08748 20.7641 5.29922ZM14.882 2.80238L14.8826 2.80271L14.8871 2.79216C14.976 2.58465 15.1548 2.44831 15.3624 2.38678C15.5713 2.3249 15.8015 2.34136 15.9821 2.43166C16.1611 2.52116 16.3164 2.70443 16.3945 2.92325C16.4722 3.14073 16.4702 3.38319 16.3505 3.59268C16.1067 4.01939 15.6212 4.14707 15.1852 3.96452C14.8148 3.71257 14.6409 3.22422 14.882 2.80238ZM6.54481 2.43414L6.55218 2.43729L6.55995 2.43924C6.81003 2.50175 6.99163 2.64042 7.09654 2.82026C7.20109 2.99949 7.23397 3.2274 7.17239 3.47735C7.11304 3.65056 6.93071 3.8385 6.73401 3.96963C6.56373 4.08315 6.325 4.08996 6.06271 4.02466C5.64272 3.90363 5.39417 3.41592 5.51714 2.98552C5.64124 2.55116 6.1332 2.25773 6.54481 2.43414ZM2.32892 7.11717L2.32905 7.11697L2.32306 7.11355C1.9035 6.8738 1.83527 6.32731 2.08295 5.95578C2.32746 5.58902 2.88189 5.46817 3.24435 5.70981C3.61111 5.95432 3.73195 6.50875 3.49031 6.87121L3.49012 6.87108L3.48669 6.87706C3.24694 7.29663 2.70045 7.36486 2.32892 7.11717ZM19.065 7.24107L19.065 7.24102L19.0618 7.24021C18.8085 7.17689 18.626 7.05281 18.5049 6.87121C18.2572 6.49968 18.3254 5.95318 18.745 5.71343L18.7451 5.71364L18.7508 5.70981C19.1199 5.46377 19.6616 5.52946 19.9038 5.94161C19.9704 6.14152 20.0313 6.32956 20.0323 6.57825C19.9681 7.06199 19.4824 7.36035 19.065 7.24107ZM10.1054 2.06852C10.1054 1.57635 10.4712 1.21058 10.9634 1.21058C11.4556 1.21058 11.8213 1.57635 11.8213 2.06852C11.8213 2.56069 11.4556 2.92647 10.9634 2.92647C10.4712 2.92647 10.1054 2.56069 10.1054 2.06852ZM10.9634 15.9956C8.69217 15.9956 6.88948 14.1929 6.88948 11.9217C6.88948 9.65047 8.69218 7.84777 10.9634 7.84777C13.2346 7.84777 15.0373 9.65047 15.0373 11.9217C15.0373 14.1929 13.2346 15.9956 10.9634 15.9956Z" fill="#23036A" stroke="#23036A" stroke-width="0.2"/>
</svg>
