<svg width="15" height="15" viewBox="0 0 15 15" fill="none" xmlns="http://www.w3.org/2000/svg">
<path d="M7.459 0.35788C6.74072 0.35788 6.2659 0.862544 5.99632 1.3159C5.72206 1.77579 5.57654 2.31404 5.55695 2.66105C5.5187 3.35135 5.62225 3.95583 5.96646 4.39239C6.32467 4.84762 6.86199 5.02206 7.459 5.02206C8.06441 5.02206 8.59986 4.8271 8.9562 4.37187C9.30042 3.93157 9.41143 3.33176 9.36665 2.65639C9.3452 2.32803 9.19781 1.79258 8.92449 1.33083C8.65676 0.878402 8.18195 0.35788 7.45993 0.35788H7.459ZM6.48885 2.71236C6.49818 2.52299 6.59706 2.13027 6.79762 1.79258C7.00284 1.4493 7.23139 1.29072 7.45993 1.29072C7.68288 1.29072 7.91236 1.45116 8.12225 1.80471C8.32467 2.14986 8.42542 2.54445 8.43661 2.71702C8.47299 3.27672 8.36758 3.61068 8.22206 3.79724C8.08867 3.96702 7.86292 4.08922 7.459 4.08922C7.03923 4.08922 6.82281 3.97262 6.69967 3.81497C6.55975 3.63773 6.45527 3.30751 6.48792 2.71236H6.48885Z" fill="black"/>
<path d="M2.79851 5.96231C2.3037 5.96231 1.82916 6.15887 1.47928 6.50875C1.1294 6.85864 0.932836 7.33318 0.932836 7.82798V13.425H0.466418C0.342716 13.425 0.224081 13.4741 0.136611 13.5616C0.0491404 13.6491 0 13.7677 0 13.8914C0 14.0151 0.0491404 14.1338 0.136611 14.2212C0.224081 14.3087 0.342716 14.3578 0.466418 14.3578H14.459C14.5827 14.3578 14.7013 14.3087 14.7888 14.2212C14.8762 14.1338 14.9254 14.0151 14.9254 13.8914C14.9254 13.7677 14.8762 13.6491 14.7888 13.5616C14.7013 13.4741 14.5827 13.425 14.459 13.425H13.9925V7.82798C13.9925 7.33318 13.796 6.85864 13.4461 6.50875C13.0962 6.15887 12.6217 5.96231 12.1269 5.96231H2.79851ZM13.0597 13.425H1.86567V9.80373L3.3069 11.091C3.48988 11.2547 3.70334 11.3806 3.93507 11.4616C4.1668 11.5426 4.41223 11.577 4.6573 11.563C4.90237 11.549 5.14226 11.4867 5.36322 11.3798C5.58418 11.2729 5.78187 11.1234 5.94496 10.9399L6.76586 10.0164C6.85338 9.91793 6.96076 9.8391 7.08095 9.78512C7.20114 9.73114 7.3314 9.70323 7.46315 9.70323C7.59491 9.70323 7.72516 9.73114 7.84535 9.78512C7.96554 9.8391 8.07293 9.91793 8.16045 10.0164L8.98041 10.9399C9.14345 11.1236 9.34114 11.2733 9.56216 11.3803C9.78317 11.4874 10.0231 11.5498 10.2683 11.5639C10.5135 11.5781 10.7591 11.5437 10.9909 11.4627C11.2228 11.3817 11.4363 11.2557 11.6194 11.092L13.0597 9.80373V13.425ZM13.0597 8.55186L10.9972 10.3961C10.9057 10.4779 10.799 10.5409 10.6831 10.5814C10.5673 10.6218 10.4445 10.6391 10.322 10.6321C10.1995 10.625 10.0795 10.5939 9.96904 10.5404C9.85856 10.487 9.75972 10.4122 9.67817 10.3205L8.85728 9.39701C8.68224 9.20004 8.46746 9.04238 8.22709 8.93442C7.98671 8.82645 7.72619 8.77064 7.46269 8.77064C7.19918 8.77064 6.93866 8.82645 6.69829 8.93442C6.45791 9.04238 6.24313 9.20004 6.0681 9.39701L5.2472 10.3205C5.16566 10.4122 5.06681 10.487 4.95633 10.5404C4.84585 10.5939 4.7259 10.625 4.60337 10.6321C4.48083 10.6391 4.35812 10.6218 4.24225 10.5814C4.12639 10.5409 4.01966 10.4779 3.92817 10.3961L1.86567 8.55186V7.82798C1.86567 7.58058 1.96395 7.34331 2.13889 7.16837C2.31383 6.99343 2.5511 6.89515 2.79851 6.89515H12.1269C12.3743 6.89515 12.6115 6.99343 12.7865 7.16837C12.9614 7.34331 13.0597 7.58058 13.0597 7.82798V8.55186Z" fill="black"/>
</svg>
