<svg width="15" height="14" viewBox="0 0 15 14" fill="none" xmlns="http://www.w3.org/2000/svg">
<path d="M11.3639 14C11.1681 13.9998 10.9768 13.9411 10.8145 13.8316L7.50921 11.6162C7.49293 11.605 7.47361 11.599 7.45383 11.599C7.43404 11.599 7.41472 11.605 7.39844 11.6162L4.09314 13.8316C3.92717 13.9424 3.7314 14.0001 3.53185 13.9971C3.3323 13.994 3.1384 13.9303 2.9759 13.8144C2.8134 13.6986 2.68999 13.536 2.62206 13.3484C2.55413 13.1607 2.54489 12.9568 2.59557 12.7638L3.68109 8.93567C3.68622 8.91642 3.6856 8.89609 3.6793 8.87719C3.673 8.85829 3.6613 8.84165 3.64564 8.82933L0.517574 6.3703C0.352902 6.24762 0.230752 6.07649 0.168251 5.88089C0.105751 5.68529 0.106033 5.47503 0.16906 5.2796C0.232087 5.08417 0.354697 4.91336 0.519698 4.79113C0.684699 4.6689 0.883818 4.60137 1.08913 4.59802L5.07676 4.44738C5.09636 4.44602 5.11516 4.43903 5.13088 4.42724C5.14661 4.41545 5.15858 4.39936 5.16537 4.38092L6.53889 0.645841C6.60812 0.456491 6.73387 0.292988 6.8991 0.17747C7.06434 0.0619528 7.26108 0 7.46269 0C7.6643 0 7.86104 0.0619528 8.02627 0.17747C8.19151 0.292988 8.31725 0.456491 8.38649 0.645841L9.76 4.38092C9.76679 4.39936 9.77877 4.41545 9.79449 4.42724C9.81021 4.43903 9.82901 4.44602 9.84862 4.44738L13.8362 4.59802C14.0416 4.60137 14.2407 4.6689 14.4057 4.79113C14.5707 4.91336 14.6933 5.08417 14.7563 5.2796C14.8193 5.47503 14.8196 5.68529 14.7571 5.88089C14.6946 6.07649 14.5725 6.24762 14.4078 6.3703L11.2797 8.82933C11.2636 8.84126 11.2515 8.85787 11.2452 8.8769C11.2389 8.89593 11.2385 8.91645 11.2443 8.93567L12.3298 12.7638C12.3679 12.9106 12.3717 13.0643 12.3409 13.2128C12.31 13.3613 12.2454 13.5008 12.152 13.6203C12.0586 13.7398 11.9389 13.8363 11.8023 13.9021C11.6656 13.9679 11.5156 14.0014 11.3639 14ZM7.45604 10.7124C7.65225 10.7184 7.84212 10.7832 8.00102 10.8985L11.3063 13.1138C11.3231 13.1265 11.3435 13.1335 11.3645 13.1337C11.3856 13.1339 11.4061 13.1272 11.423 13.1147C11.44 13.1023 11.4525 13.0847 11.4586 13.0645C11.4647 13.0444 11.4641 13.0228 11.457 13.003L10.3714 9.17493C10.318 8.98714 10.322 8.78767 10.3828 8.60214C10.4435 8.4166 10.5584 8.25348 10.7126 8.13371L13.8407 5.67468C13.8577 5.66269 13.8705 5.64555 13.8771 5.62577C13.8837 5.60599 13.8838 5.58462 13.8773 5.56479C13.8709 5.54495 13.8583 5.52771 13.8413 5.51559C13.8243 5.50347 13.8039 5.49711 13.7831 5.49745L9.79545 5.34681C9.6002 5.3392 9.41163 5.2736 9.25381 5.15839C9.09599 5.04318 8.97606 4.88357 8.90931 4.69993L7.53579 0.964851C7.5296 0.945019 7.51723 0.927685 7.5005 0.915376C7.48376 0.903068 7.46353 0.89643 7.44275 0.89643C7.42197 0.89643 7.40174 0.903068 7.385 0.915376C7.36827 0.927685 7.3559 0.945019 7.3497 0.964851L5.98948 4.6955C5.92274 4.87914 5.8028 5.03875 5.64498 5.15396C5.48716 5.26917 5.2986 5.33477 5.10334 5.34238L1.11572 5.49302C1.09487 5.49268 1.07446 5.49904 1.05749 5.51116C1.04052 5.52328 1.02789 5.54052 1.02144 5.56035C1.015 5.58019 1.01508 5.60156 1.02168 5.62134C1.02828 5.64112 1.04106 5.65826 1.05812 5.67025L4.19062 8.13371C4.34434 8.25386 4.45885 8.41702 4.5196 8.60242C4.58035 8.78782 4.58459 8.98711 4.53178 9.17493L3.45069 13.003C3.44424 13.0222 3.44421 13.043 3.45061 13.0622C3.457 13.0813 3.46948 13.0979 3.48614 13.1094C3.50219 13.1231 3.52262 13.1307 3.54374 13.1307C3.56486 13.1307 3.58529 13.1231 3.60134 13.1094L6.90663 10.894C7.06817 10.7869 7.25777 10.7299 7.45161 10.7301L7.45604 10.7124Z" fill="black"/>
</svg>
