<svg width="13" height="15" viewBox="0 0 13 15" fill="none" xmlns="http://www.w3.org/2000/svg">
<path d="M12.0627 6.51788H10.8727V2.59788C10.8727 1.36063 9.86992 0.35788 8.63267 0.35788H4.29267C3.05542 0.35788 2.05267 1.36063 2.05267 2.59788V6.51788H0.862673C0.552923 6.51788 0.302673 6.76813 0.302673 7.07788V13.7979C0.302673 14.1076 0.552923 14.3579 0.862673 14.3579H12.0627C12.3724 14.3579 12.6227 14.1076 12.6227 13.7979V7.07788C12.6227 6.76813 12.3724 6.51788 12.0627 6.51788ZM3.31267 2.59788C3.31267 2.05713 3.75192 1.61788 4.29267 1.61788H8.63267C9.17342 1.61788 9.61267 2.05713 9.61267 2.59788V6.51788H3.31267V2.59788ZM11.3627 13.0979H1.56267V7.77788H11.3627V13.0979ZM5.97267 10.6654V11.5929C5.97267 11.6699 6.03567 11.7329 6.11267 11.7329H6.81267C6.88967 11.7329 6.95267 11.6699 6.95267 11.5929V10.6654C7.09713 10.5617 7.20495 10.4148 7.26062 10.2459C7.31629 10.077 7.31693 9.8948 7.26246 9.72552C7.20798 9.55623 7.1012 9.4086 6.95747 9.30387C6.81375 9.19914 6.64051 9.14271 6.46267 9.14271C6.28484 9.14271 6.11159 9.19914 5.96787 9.30387C5.82415 9.4086 5.71737 9.55623 5.66289 9.72552C5.60841 9.8948 5.60906 10.077 5.66472 10.2459C5.72039 10.4148 5.82822 10.5617 5.97267 10.6654Z" fill="black"/>
</svg>
