<svg width="13" height="14" viewBox="0 0 13 14" fill="none" xmlns="http://www.w3.org/2000/svg">
<path fill-rule="evenodd" clip-rule="evenodd" d="M1.79558 0.96957C2.00862 0.756534 2.29746 0.636701 2.59874 0.636363H8.73511L2.59902 0.636364C2.29774 0.636703 2.0089 0.756535 1.79587 0.969572C1.58283 1.18261 1.463 1.47145 1.46266 1.77273V9.72728H1.46237V1.77273C1.46271 1.47145 1.58254 1.18261 1.79558 0.96957ZM11.2809 9.54546V3.54546H10.3263C9.85637 3.54492 9.40562 3.358 9.07333 3.02571C8.74103 2.69341 8.55411 2.24287 8.55358 1.77294V0.818183L2.59923 0.818183C2.34612 0.818483 2.1034 0.919162 1.92443 1.09814C1.74546 1.27711 1.64478 1.51976 1.64448 1.77287V9.54546H11.2809ZM9.25194 0.119816L11.9792 2.84709C12.0172 2.88508 12.0473 2.93018 12.0679 2.97982C12.0885 3.02945 12.099 3.08265 12.099 3.13637V12.2273C12.0985 12.6972 11.9116 13.148 11.5793 13.4803C11.247 13.8126 10.7964 13.9995 10.3265 14H2.59902C2.12909 13.9995 1.67834 13.8126 1.34605 13.4803C1.01375 13.148 0.82683 12.6974 0.826294 12.2275V1.77273C0.82683 1.30279 1.01375 0.852048 1.34605 0.519752C1.67834 0.187456 2.12888 0.00053628 2.59882 0H8.96266C9.01638 -1.95043e-06 9.06958 0.0105778 9.11922 0.0311353C9.16885 0.0516924 9.21395 0.081828 9.25194 0.119816ZM11.8507 2.97566L9.12338 0.248381C9.10227 0.227277 9.07722 0.210537 9.04964 0.199116C9.02245 0.187855 8.99334 0.181984 8.96392 0.181822C8.99324 0.18202 9.02225 0.18789 9.04935 0.199114C9.07693 0.210535 9.10198 0.227276 9.12309 0.24838L11.8504 2.97566C11.8715 2.99676 11.8882 3.02182 11.8996 3.04939C11.9111 3.07697 11.9169 3.10652 11.9169 3.13637V12.2273C11.9164 12.6491 11.7487 13.0534 11.4504 13.3517C11.1534 13.6487 10.7511 13.8164 10.3311 13.8182C10.7512 13.8164 11.1536 13.6488 11.4507 13.3517C11.749 13.0534 11.9167 12.6491 11.9172 12.2273V3.13637C11.9172 3.10652 11.9113 3.07697 11.8999 3.04939C11.8885 3.02182 11.8718 2.99676 11.8507 2.97566ZM9.52286 2.57589C9.7351 2.78812 10.0226 2.90785 10.3226 2.90908C10.0227 2.90778 9.73532 2.78806 9.52315 2.57589C9.31011 2.36285 9.19028 2.07401 9.18994 1.77273V0.958042L9.18965 0.957755V1.77273C9.18999 2.07401 9.30982 2.36285 9.52286 2.57589ZM9.37176 1.39671V1.77252C9.37204 2.02565 9.47272 2.26833 9.65171 2.44732C9.83065 2.62626 10.0732 2.72694 10.3263 2.72728H10.7023L9.37176 1.39671ZM11.4624 3.36364L10.3263 3.36364L10.326 3.36364H11.4624ZM11.0009 12.9019C11.1799 12.7229 11.2806 12.4802 11.2809 12.2271V10.3636H1.64448V12.2271C1.64478 12.4802 1.74546 12.7229 1.92443 12.9019C2.10342 13.0809 2.3461 13.1815 2.59923 13.1818H10.3261C10.5792 13.1815 10.8219 13.0809 11.0009 12.9019ZM2.59902 13.3636C2.29774 13.3633 2.0089 13.2435 1.79587 13.0304C1.58283 12.8174 1.463 12.5286 1.46266 12.2273V10.1818H1.46237V12.2273C1.46271 12.5286 1.58254 12.8174 1.79558 13.0304C2.00862 13.2435 2.29746 13.3633 2.59874 13.3637L2.59902 13.3636ZM2.28577 5.07579C2.28577 4.95812 2.38116 4.86273 2.49883 4.86273H10.2457C10.3634 4.86273 10.4587 4.95812 10.4587 5.07579C10.4587 5.19346 10.3634 5.28886 10.2457 5.28886H2.49883C2.38116 5.28886 2.28577 5.19346 2.28577 5.07579ZM2.49883 5.99616C2.38116 5.99616 2.28577 6.09156 2.28577 6.20923C2.28577 6.3269 2.38116 6.4223 2.49883 6.4223H10.2457C10.3634 6.4223 10.4587 6.3269 10.4587 6.20923C10.4587 6.09156 10.3634 5.99616 10.2457 5.99616H2.49883ZM2.28577 7.34262C2.28577 7.22495 2.38116 7.12955 2.49883 7.12955H10.2457C10.3634 7.12955 10.4587 7.22495 10.4587 7.34262C10.4587 7.46029 10.3634 7.55569 10.2457 7.55569H2.49883C2.38116 7.55569 2.28577 7.46029 2.28577 7.34262ZM2.49883 8.26294C2.38116 8.26294 2.28577 8.35834 2.28577 8.47601C2.28577 8.59368 2.38116 8.68908 2.49883 8.68908H5.3446C5.4623 8.68908 5.55767 8.59368 5.55767 8.47601C5.55767 8.35834 5.4623 8.26294 5.3446 8.26294H2.49883ZM5.3446 3.13203H2.49883C2.38116 3.13203 2.28577 3.03663 2.28577 2.91896C2.28577 2.80129 2.38116 2.70589 2.49883 2.70589H5.3446C5.4623 2.70589 5.55767 2.80129 5.55767 2.91896C5.55767 3.03663 5.4623 3.13203 5.3446 3.13203Z" fill="black"/>
</svg>
