<svg width="9" height="16" viewBox="0 0 9 16" fill="none" xmlns="http://www.w3.org/2000/svg">
<path d="M0.837677 6.2172L0.837963 6.21722C0.843104 6.14136 0.848138 6.0653 0.853178 5.98913C0.864641 5.81591 0.87614 5.64214 0.88903 5.46885L0.889034 5.4688C0.941261 4.77062 1.00096 4.0591 1.20438 3.37002C1.2998 3.04485 1.42318 2.69112 1.73659 2.4533C1.73746 2.44883 1.7383 2.44354 1.7391 2.43742C1.74007 2.42996 1.74085 2.42222 1.74158 2.41415C1.7448 2.00914 1.74509 1.73202 1.7453 1.53607C1.74538 1.45854 1.74545 1.39372 1.74568 1.33871C1.74648 1.14778 1.74899 1.06796 1.76424 0.988405L1.76428 0.988171C1.8524 0.533258 2.21353 0.237686 2.6738 0.234936L2.67411 0.234935C3.26239 0.23288 3.85063 0.23288 4.43894 0.23288H4.43906H6.19024C6.48828 0.23288 6.74148 0.325731 6.91879 0.51093C7.09561 0.695625 7.18233 0.956872 7.17848 1.26545C7.17756 1.34375 7.18548 1.65909 7.20966 1.96896C7.22176 2.12386 7.23767 2.27408 7.25794 2.39114C7.26812 2.44994 7.27884 2.49705 7.2896 2.5309C7.29498 2.54781 7.29958 2.55889 7.30286 2.56537C7.30303 2.5657 7.30318 2.56601 7.30333 2.56629C7.54629 2.78592 7.66004 3.09765 7.71983 3.38986L7.59736 3.41492M0.837677 6.2172L7.31795 13.4293C7.67566 11.9105 7.83389 10.363 7.91284 8.80631L8.03768 8.81265C8.03768 8.81265 8.03768 8.81264 8.03768 8.81264C8.10278 7.53182 8.1223 6.24284 7.98416 4.95761L7.98416 4.9576C7.92727 4.42864 7.8258 3.90381 7.71979 3.38968L7.59736 3.41492M0.837677 6.2172V6.22567V8.00294H0.837473L0.837881 8.01008C0.844387 8.12383 0.850803 8.23792 0.85722 8.35204C0.867115 8.528 0.877015 8.70405 0.88726 8.87911C0.970306 10.4017 1.12519 11.9186 1.46988 13.4091M0.837677 6.2172L6.85412 15.1773C6.82271 15.2388 6.77968 15.2887 6.74134 15.3294C6.72422 15.3476 6.7093 15.3627 6.69552 15.3767C6.67442 15.3981 6.656 15.4168 6.63645 15.4395L6.59905 15.4829H6.54178H2.36395H2.30215L2.26463 15.4338C2.24444 15.4073 2.22505 15.3844 2.20374 15.3592C2.18981 15.3427 2.17507 15.3252 2.15874 15.3052C2.12109 15.259 2.08075 15.2055 2.04958 15.1436L2.04934 15.1431C1.7741 14.591 1.60644 14 1.46988 13.4091M7.59736 3.41492C7.70328 3.92858 7.80367 4.44841 7.85988 4.97097L7.21431 2.65436C7.43167 2.84784 7.53921 3.13069 7.59736 3.41492ZM1.46988 13.4091L1.59167 13.381L1.46988 13.4091ZM6.21656 14.8148L6.2169 14.6898C5.04513 14.6866 3.87335 14.6866 2.70158 14.6898C2.69353 14.6898 2.68858 14.6891 2.68591 14.6887C2.68369 14.6856 2.67917 14.6785 2.67275 14.664C2.41415 14.0677 2.25381 13.437 2.1246 12.7901L2.12455 12.7899C1.81997 11.2797 1.6859 9.74769 1.62887 8.20208L1.62884 8.20145C1.58625 7.18653 1.60536 6.16978 1.68605 5.15743C1.73458 4.57025 1.80711 3.99576 1.98878 3.44701L1.87011 3.40773L1.98866 3.44735C1.99569 3.42631 2.00324 3.40614 2.01167 3.3836C2.01429 3.3766 2.017 3.36937 2.0198 3.36181L2.01991 3.3615C2.05752 3.25927 2.09833 3.1965 2.1448 3.16042C2.18702 3.12763 2.24818 3.1059 2.35377 3.11731C2.54879 3.13846 2.75237 3.13341 2.94754 3.12857C2.99609 3.12737 3.04412 3.12618 3.09136 3.1254C3.1663 3.38286 3.30183 3.6175 3.48666 3.80698L3.48675 3.80707C4.22906 4.56639 5.51631 4.21491 5.80824 3.18216L5.80833 3.18185C5.8198 3.14085 5.82887 3.1286 5.83095 3.12619C5.8344 3.12482 5.84672 3.12145 5.87776 3.12272L5.87811 3.12274C6.01995 3.12816 6.16093 3.12753 6.29873 3.12689L6.30052 3.12688C6.43857 3.12624 6.57343 3.12562 6.70803 3.13062L6.70858 3.13064C6.7179 3.13094 6.73796 3.13536 6.759 3.14603C6.7687 3.15096 6.77597 3.15591 6.7806 3.15982C6.78211 3.1611 6.78308 3.16204 6.78363 3.16261C6.86892 3.31378 6.93798 3.47461 6.98949 3.64213C7.17612 4.29909 7.23088 4.98046 7.27309 5.67576C7.3314 6.70809 7.33053 7.7432 7.27049 8.77542L7.27046 8.77593C7.18161 10.4199 7.01975 12.0484 6.59815 13.6313C6.5353 13.8618 6.45539 14.082 6.3735 14.3076C6.32982 14.428 6.28557 14.5499 6.24304 14.6758L6.24303 14.6758C6.24103 14.6817 6.23929 14.6858 6.23798 14.6885C6.23399 14.6891 6.2272 14.6898 6.21656 14.6898V14.8148ZM6.21656 14.8148C6.29291 14.8148 6.33579 14.7918 6.36146 14.7158L2.55824 14.7141C2.58845 14.7826 2.62322 14.8148 2.70184 14.8148C3.87341 14.8116 5.04499 14.8116 6.21656 14.8148ZM2.3672 2.99303C2.10728 2.96495 1.98447 3.09577 1.9026 3.31835L3.18788 2.99954C3.10327 2.99954 3.01885 3.00165 2.93474 3.00375C2.74336 3.00852 2.55363 3.01325 2.3672 2.99303ZM6.41288 2.32869H5.6324C5.48659 2.32869 5.34711 2.33736 5.24903 2.42546C5.19871 2.47066 5.16855 2.52805 5.14826 2.58937C5.12839 2.64942 5.11571 2.72044 5.10499 2.8L5.10497 2.80019C5.05427 3.18114 4.7725 3.43102 4.44319 3.42012C4.1119 3.40914 3.84565 3.14874 3.81144 2.76283C3.80024 2.63642 3.76779 2.51919 3.6815 2.43673C3.59395 2.35306 3.4759 2.32869 3.35033 2.32869H3.34849H3.34664H3.34479H3.34295H3.3411H3.33925H3.33741H3.33556H3.33371H3.33187H3.33002H3.32817H3.32633H3.32448H3.32263H3.32079H3.31894H3.31709H3.31525H3.3134H3.31155H3.30971H3.30786H3.30601H3.30417H3.30232H3.30047H3.29863H3.29678H3.29493H3.29309H3.29124H3.28939H3.28754H3.2857H3.28385H3.282H3.28016H3.27831H3.27646H3.27462H3.27277H3.27092H3.26907H3.26723H3.26538H3.26353H3.26169H3.25984H3.25799H3.25614H3.2543H3.25245H3.2506H3.24875H3.24691H3.24506H3.24321H3.24137H3.23952H3.23767H3.23582H3.23397H3.23213H3.23028H3.22843H3.22658H3.22474H3.22289H3.22104H3.21919H3.21734H3.2155H3.21365H3.2118H3.20995H3.2081H3.20625H3.20441H3.20256H3.20071H3.19886H3.19701H3.19516H3.19332H3.19147H3.18962H3.18777H3.18592H3.18407H3.18222H3.18037H3.17852H3.17668H3.17483H3.17298H3.17113H3.16928H3.16743H3.16558H3.16373H3.16188H3.16003H3.15818H3.15633H3.15448H3.15263H3.15078H3.14893H3.14708H3.14523H3.14338H3.14153H3.13968H3.13783H3.13598H3.13413H3.13228H3.13043H3.12858H3.12673H3.12488H3.12303H3.12118H3.11933H3.11748H3.11562H3.11377H3.11192H3.11007H3.10822H3.10637H3.10452H3.10266H3.10081H3.09896H3.09711H3.09526H3.09341H3.09155H3.0897H3.08785H3.086H3.08414H3.08229H3.08044H3.07859H3.07673H3.07488H3.07303H3.07117H3.06932H3.06747H3.06562H3.06376H3.06191H3.06006H3.0582H3.05635H3.05449H3.05264H3.05079H3.04893H3.04708H3.04522H3.04337H3.04151H3.03966H3.03781H3.03595H3.0341H3.03224H3.03039H3.02853H3.02668H3.02482H3.02297H3.02111H3.01925H3.0174H3.01554H3.01369H3.01183H3.00997H3.00812H3.00626H3.00441H3.00255H3.00069H2.99884H2.99698H2.99512H2.99327H2.99141H2.98955H2.98769H2.98584H2.98398H2.98212H2.98026H2.9784H2.97655H2.97469H2.97283H2.97097H2.96911H2.96725H2.9654H2.96354H2.96168H2.95982H2.95796H2.9561H2.95424H2.95238H2.95052H2.94866H2.9468H2.94494H2.94308H2.94122H2.93936H2.9375H2.93564H2.93378H2.93192H2.93006H2.92819H2.92633H2.92447H2.92261H2.92075H2.91889H2.91702H2.91516H2.9133H2.91144H2.90958H2.90771H2.90585H2.90399H2.90212H2.90026H2.8984H2.89653H2.89467H2.89281H2.89094H2.88908H2.88721H2.88535H2.88349H2.88162H2.87976H2.87789H2.87603H2.87416H2.8723H2.87043H2.86856H2.8667H2.86483H2.86297H2.8611H2.85923H2.85737H2.8555H2.85363H2.85177H2.8499H2.84803H2.84616H2.8443H2.84243H2.84056H2.83869H2.83683H2.83496H2.83309H2.83122H2.82935H2.82748H2.82561H2.82374H2.82187H2.82H2.81813H2.81626H2.81439H2.81252H2.81065H2.80878H2.80691H2.80504H2.80317H2.8013H2.79943H2.79756H2.79568H2.79381H2.79194H2.79007H2.78819H2.78632H2.78445H2.78258H2.7807H2.77883H2.77696H2.77508H2.77321H2.77133H2.76946H2.76759H2.76571H2.76384H2.76196H2.76009H2.75821H2.75634H2.75446H2.75258H2.75071H2.74883H2.74696H2.74508H2.7432H2.74133H2.73945H2.73757H2.73569H2.73382H2.73194H2.73006H2.72818H2.7263H2.72442H2.72255H2.72067H2.71879H2.71691H2.71503H2.71315H2.71127H2.70939H2.70751H2.70563H2.70375H2.70187H2.69998H2.6981H2.69622H2.69434H2.69246H2.69058H2.68869H2.68681H2.68493H2.68304H2.68116H2.67928H2.67739H2.67551H2.67363H2.67174H2.66986H2.66797H2.66609H2.6642H2.66232H2.66043H2.65855H2.65666H2.65478H2.65289H2.651H2.64912H2.64723H2.64534H2.64345H2.64157H2.63968H2.63779H2.6359H2.63401H2.63213H2.63024H2.62835H2.62646H2.62457H2.62268H2.62079H2.6189H2.61701H2.61512H2.61323H2.61134H2.60944H2.60755H2.60566H2.60377H2.60188H2.59998H2.59809H2.5962H2.59431H2.59241H2.59052H2.58863H2.58673H2.58484H2.58294H2.58105H2.57915H2.57726H2.57536H2.57347H2.57157H2.56967H2.56778H2.56588H2.56398H2.56209H2.56019H2.55829H2.55639H2.5545H2.5526H2.5507H2.5488H2.5469H2.545H2.5431H2.5412H2.5393H2.5374H2.5355H2.5336H2.5317H2.5298H2.5279H2.526H2.52409H2.52219H2.52029H2.51839H2.51648H2.51509C2.51239 2.01849 2.51336 1.23847 2.51791 1.14459C2.52041 1.11825 2.53094 1.09436 2.54678 1.07632C2.56284 1.05802 2.5832 1.04695 2.6041 1.04331L2.60411 1.04336L2.60782 1.0426C2.65324 1.03324 2.69946 1.02926 2.74566 1.03072L2.74566 1.03078H2.7496C3.8748 1.03078 4.99956 1.03113 6.12389 1.03181H6.12396C6.20859 1.03181 6.26702 1.03646 6.3085 1.04593C6.34817 1.05498 6.36382 1.06652 6.37177 1.07501C6.3803 1.08412 6.3922 1.10284 6.40094 1.14781C6.40989 1.19378 6.41368 1.25718 6.41288 1.34677H6.41288V1.34788V1.34805V1.34824V1.34845V1.34869V1.34895V1.34924V1.34954V1.34987V1.35022V1.35059V1.35098V1.3514V1.35184V1.3523V1.35278V1.35328V1.35381V1.35435V1.35492V1.35551V1.35612V1.35675V1.3574V1.35807V1.35876V1.35948V1.36021V1.36097V1.36174V1.36254V1.36335V1.36419V1.36504V1.36592V1.36682V1.36773V1.36867V1.36962V1.3706V1.37159V1.3726V1.37364V1.37469V1.37576V1.37685V1.37796V1.37909V1.38023V1.3814V1.38258V1.38378V1.385V1.38624V1.3875V1.38877V1.39007V1.39138V1.39271V1.39405V1.39542V1.3968V1.3982V1.39962V1.40105V1.4025V1.40397V1.40546V1.40696V1.40848V1.41002V1.41157V1.41314V1.41473V1.41633V1.41795V1.41958V1.42123V1.4229V1.42458V1.42628V1.428V1.42973V1.43148V1.43324V1.43502V1.43681V1.43862V1.44044V1.44228V1.44414V1.446V1.44789V1.44979V1.4517V1.45363V1.45557V1.45753V1.4595V1.46148V1.46348V1.4655V1.46752V1.46956V1.47162V1.47369V1.47577V1.47787V1.47998V1.4821V1.48423V1.48638V1.48855V1.49072V1.49291V1.49511V1.49732V1.49955V1.50179V1.50404V1.5063V1.50858V1.51087V1.51317V1.51548V1.5178V1.52014V1.52249V1.52485V1.52722V1.5296V1.532V1.5344V1.53682V1.53925V1.54169V1.54414V1.5466V1.54907V1.55155V1.55404V1.55655V1.55906V1.56158V1.56412V1.56666V1.56922V1.57178V1.57436V1.57694V1.57954V1.58214V1.58475V1.58738V1.59001V1.59265V1.5953V1.59796V1.60063V1.60331V1.60599V1.60869V1.61139V1.6141V1.61683V1.61956V1.62229V1.62504V1.62779V1.63056V1.63333V1.6361V1.63889V1.64168V1.64448V1.64729V1.65011V1.65293V1.65576V1.6586V1.66145V1.6643V1.66716V1.67002V1.6729V1.67577V1.67866V1.68155V1.68445V1.68736V1.69027V1.69318V1.69611V1.69904V1.70197V1.70491V1.70786V1.71081V1.71377V1.71673V1.7197V1.72267V1.72565V1.72863V1.73162V1.73461V1.73761V1.74062V1.74362V1.74663V1.74965V1.75267V1.7557V1.75873V1.76176V1.7648V1.76784V1.77088V1.77393V1.77698V1.78004V1.7831V1.78616V1.78923V1.7923V1.79537V1.79844V1.80152V1.8046V1.80769V1.81077V1.81386V1.81695V1.82005V1.82314V1.82624V1.82934V1.83244V1.83555V1.83866V1.84176V1.84487V1.84799V1.8511V1.85421V1.85733V1.86045V1.86356V1.86668V1.8698V1.87292V1.87605V1.87917V1.88229V1.88542V1.88854V1.89167V1.89479V1.89792V1.90104V1.90417V1.90729V1.91042V1.91354V1.91666V1.91979V1.92291V1.92604V1.92916V1.93228V1.9354V1.93852V1.94164V1.94475V1.94787V1.95099V1.9541V1.95721V1.96032V1.96343V1.96654V1.96964V1.97275V1.97585V1.97895V1.98204V1.98514V1.98823V1.99132V1.99441V1.99749V2.00057V2.00365V2.00673V2.0098V2.01287V2.01594V2.019V2.02206V2.02512V2.02817V2.03122V2.03427V2.03731V2.04035V2.04338V2.04641V2.04944V2.05246V2.05548V2.05849V2.0615V2.06451V2.0675V2.0705V2.07349V2.07647V2.07945V2.08243V2.0854V2.08836V2.09132V2.09428V2.09722V2.10017V2.1031V2.10603V2.10896V2.11188V2.11479V2.1177V2.1206V2.12349V2.12638V2.12926V2.13213V2.135V2.13786V2.14072V2.14356V2.1464V2.14924V2.15206V2.15488V2.15769V2.1605V2.16329V2.16608V2.16886V2.17163V2.1744V2.17715V2.1799V2.18264V2.18537V2.1881V2.19081V2.19352V2.19622V2.19891V2.20159V2.20426V2.20692V2.20957V2.21222V2.21485V2.21748V2.2201V2.2227V2.2253V2.22789V2.23046V2.23303V2.23559V2.23814V2.24067V2.2432V2.24572V2.24822V2.25072V2.25321V2.25568V2.25815V2.2606V2.26304V2.26547V2.26789V2.2703V2.2727V2.27508V2.27746V2.27982V2.28217V2.28451V2.28684V2.28916V2.29146V2.29375V2.29603V2.2983V2.30055V2.3028V2.30503V2.30724V2.30945V2.31164V2.31382V2.31599V2.31814V2.32028V2.32241V2.32452V2.32662V2.32869ZM5.82985 3.12673C5.82983 3.12672 5.83003 3.12658 5.83052 3.12637L5.82985 3.12673Z" fill="black" stroke="black" stroke-width="0.25"/>
</svg>
