<svg width="16" height="16" viewBox="0 0 16 16" fill="none" xmlns="http://www.w3.org/2000/svg">
<path d="M10.6875 2.34375H12.4062V0.625C12.4062 0.279785 12.686 0 13.0312 0C13.3765 0 13.6562 0.279785 13.6562 0.625V2.34375H15.375C15.7202 2.34375 16 2.62354 16 2.96875C16 3.31396 15.7202 3.59375 15.375 3.59375H13.6562V5.3125C13.6562 5.65771 13.3765 5.9375 13.0312 5.9375C12.686 5.9375 12.4062 5.65771 12.4062 5.3125V3.59375H10.6875C10.3423 3.59375 10.0625 3.31396 10.0625 2.96875C10.0625 2.62354 10.3423 2.34375 10.6875 2.34375ZM16 6.09375V13.5C16 14.8785 14.8785 16 13.5 16H2.5C1.12146 16 0 14.8785 0 13.5V2.5C0 1.12146 1.12146 0 2.5 0H9.90625C10.2515 0 10.5312 0.279785 10.5312 0.625C10.5312 0.970215 10.2515 1.25 9.90625 1.25H2.5C1.81079 1.25 1.25 1.81079 1.25 2.5V13.5C1.25 14.0292 1.58069 14.4823 2.04614 14.6643C2.02197 14.49 2.02734 14.3105 2.06445 14.1329C2.34595 12.7889 3.09106 11.5662 4.16272 10.6897C4.67566 10.2701 5.25293 9.9397 5.86768 9.70776C5.20081 9.11218 4.78015 8.24634 4.78015 7.28394C4.78015 5.49182 6.23804 4.03394 8.03015 4.03394C9.82214 4.03394 11.2802 5.49182 11.2802 7.28394C11.2802 8.255 10.8518 9.12793 10.1743 9.724C10.7733 9.95508 11.3361 10.2798 11.8373 10.6897C12.9089 11.5662 13.6541 12.7889 13.9355 14.1331C13.9727 14.3105 13.978 14.49 13.9539 14.6644C14.4193 14.4823 14.75 14.0292 14.75 13.5V6.09375C14.75 5.74854 15.0298 5.46875 15.375 5.46875C15.7202 5.46875 16 5.74854 16 6.09375ZM6.03015 7.28394C6.03015 8.38672 6.92725 9.28394 8.03015 9.28394C9.13293 9.28394 10.0302 8.38672 10.0302 7.28394C10.0302 6.18115 9.13293 5.28394 8.03015 5.28394C6.92725 5.28394 6.03015 6.18115 6.03015 7.28394ZM3.58289 14.75H12.4171C12.5428 14.75 12.618 14.6805 12.6516 14.6392C12.6851 14.598 12.7374 14.5107 12.712 14.3892C12.2498 12.1816 10.2709 10.5769 8 10.5629C5.72913 10.5769 3.75024 12.1816 3.28796 14.3892C3.26257 14.5107 3.31482 14.598 3.34839 14.6392C3.38196 14.6805 3.45715 14.75 3.58289 14.75Z" fill="#66B8DF"/>
</svg>
