<svg width="20" height="16" viewBox="0 0 20 16" fill="none" xmlns="http://www.w3.org/2000/svg">
<path d="M16.6533 1.68396C16.398 0.791779 15.5757 0.136719 14.6027 0.136719C13.6296 0.136719 12.8073 0.791779 12.5519 1.68396H0V2.85584H12.552C12.8073 3.74786 13.6296 4.40308 14.6027 4.40308C15.5757 4.40308 16.398 3.74786 16.6534 2.85584H20V1.68396H16.6533ZM14.6027 3.2312C14.0726 3.2312 13.6414 2.79999 13.6414 2.2699C13.6414 1.73981 14.0727 1.30859 14.6027 1.30859C15.1328 1.30859 15.564 1.73981 15.564 2.2699C15.564 2.79999 15.1328 3.2312 14.6027 3.2312Z" fill="#66B8DF"/>
<path d="M3.75595 5.87109C2.7829 5.87109 1.9606 6.52631 1.70532 7.41833H0V8.59021H1.70532C1.9606 9.48239 2.78305 10.1375 3.7561 10.1375C4.72916 10.1375 5.55145 9.48239 5.80673 8.59021H20V7.41833H5.80673C5.55145 6.52631 4.729 5.87109 3.75595 5.87109ZM3.75595 8.96558C3.22601 8.96558 2.7948 8.53436 2.7948 8.00427C2.7948 7.47433 3.22601 7.04297 3.75595 7.04297C4.28604 7.04297 4.71725 7.47433 4.71725 8.00427C4.71725 8.53436 4.28604 8.96558 3.75595 8.96558Z" fill="#66B8DF"/>
<path d="M10.3285 11.6055C9.35547 11.6055 8.53302 12.2605 8.27774 13.1527H0V14.3246H8.27774C8.53302 15.2166 9.35547 15.8718 10.3285 15.8718C11.3014 15.8718 12.1239 15.2166 12.3792 14.3246H20V13.1527H12.3792C12.1239 12.2605 11.3014 11.6055 10.3285 11.6055ZM10.3285 14.7C9.79843 14.7 9.36722 14.2687 9.36722 13.7386C9.36722 13.2086 9.79843 12.7773 10.3285 12.7773C10.8585 12.7773 11.2898 13.2086 11.2898 13.7386C11.2898 14.2687 10.8586 14.7 10.3285 14.7Z" fill="#66B8DF"/>
</svg>
